<svg xmlns="http://www.w3.org/2000/svg" xmlns:svg="http://www.w3.org/2000/svg" xmlns:xlink="http://www.w3.org/1999/xlink" id="svg2" width="85" height="90" version="1.1"><defs id="defs4"><linearGradient id="linearGradient3774-2-9"><stop style="stop-color:#000;stop-opacity:.25098041" id="stop3776-2-9" offset="0"/><stop id="stop3800" offset=".25" style="stop-color:#000;stop-opacity:.25098041"/><stop style="stop-color:#000;stop-opacity:0" id="stop3778-4-1" offset="1"/></linearGradient><radialGradient id="radialGradient3024" cx="50" cy="35" r="10" fx="50" fy="35" gradientTransform="matrix(1,0,0,0.5,0,17.5)" gradientUnits="userSpaceOnUse" xlink:href="#linearGradient3774-2-9"/><radialGradient id="radialGradient3802" cx="50" cy="35" r="10" fx="50" fy="35" gradientTransform="matrix(1,0,0,0.5,0,17.5)" gradientUnits="userSpaceOnUse" xlink:href="#linearGradient3774-2-9"/><radialGradient id="radialGradient3030" cx="50" cy="35" r="10" fx="50" fy="35" gradientTransform="matrix(1,0,0,0.5,0,17.5)" gradientUnits="userSpaceOnUse" xlink:href="#linearGradient3774-2-9"/><radialGradient id="radialGradient3040" cx="50" cy="35" r="10" fx="50" fy="35" gradientTransform="matrix(1,0,0,0.5,0,17.5)" gradientUnits="userSpaceOnUse" xlink:href="#linearGradient3774-2-9"/><radialGradient id="radialGradient3068" cx="50" cy="35" r="10" fx="50" fy="35" gradientTransform="matrix(1,0,0,0.5,0,17.5)" gradientUnits="userSpaceOnUse" xlink:href="#linearGradient3774-2-9"/><radialGradient id="radialGradient3070" cx="50" cy="35" r="10" fx="50" fy="35" gradientTransform="matrix(1,0,0,0.5,0,17.5)" gradientUnits="userSpaceOnUse" xlink:href="#linearGradient3774-2-9"/><radialGradient id="radialGradient3072" cx="50" cy="35" r="10" fx="50" fy="35" gradientTransform="matrix(1,0,0,0.5,0,17.5)" gradientUnits="userSpaceOnUse" xlink:href="#linearGradient3774-2-9"/><linearGradient id="linearGradient3774-2-9-1"><stop style="stop-color:#000;stop-opacity:.25098041" id="stop3776-2-9-1" offset="0"/><stop id="stop3800-3" offset=".25" style="stop-color:#000;stop-opacity:.25098041"/><stop style="stop-color:#000;stop-opacity:0" id="stop3778-4-1-7" offset="1"/></linearGradient><linearGradient id="linearGradient3774-2-9-15"><stop style="stop-color:#000;stop-opacity:.25098041" id="stop3776-2-9-5" offset="0"/><stop id="stop3800-0" offset=".25" style="stop-color:#000;stop-opacity:.25098041"/><stop style="stop-color:#000;stop-opacity:0" id="stop3778-4-1-5" offset="1"/></linearGradient><radialGradient id="radialGradient58942" cx="50" cy="35" r="10" fx="50" fy="35" gradientTransform="matrix(1,0,0,0.5,0,17.5)" gradientUnits="userSpaceOnUse" xlink:href="#linearGradient3774-2-9-4"/><linearGradient id="linearGradient3774-2-9-4"><stop style="stop-color:#000;stop-opacity:.25098041" id="stop3776-2-9-6" offset="0"/><stop id="stop3800-4" offset=".25" style="stop-color:#000;stop-opacity:.25098041"/><stop style="stop-color:#000;stop-opacity:0" id="stop3778-4-1-1" offset="1"/></linearGradient><radialGradient id="radialGradient4698" cx="50" cy="35" r="10" fx="50" fy="35" gradientTransform="matrix(1.75,0,0,0.9,-70,13.499895)" gradientUnits="userSpaceOnUse" xlink:href="#linearGradient3774-2-9-15"/><radialGradient id="radialGradient4703" cx="50" cy="35" r="10" fx="50" fy="35" gradientTransform="matrix(1.45,0,0,0.7,-22,10.499895)" gradientUnits="userSpaceOnUse" xlink:href="#linearGradient3774-2-9-4"/><radialGradient id="radialGradient4708" cx="50" cy="35" r="10" fx="50" fy="35" gradientTransform="matrix(0.95,0,0,0.5,28,7.4998953)" gradientUnits="userSpaceOnUse" xlink:href="#linearGradient3774-2-9-1"/><radialGradient id="radialGradient3829" cx="50" cy="35" r="10" fx="50" fy="35" gradientTransform="matrix(1,0,0,0.5,0,17.5)" gradientUnits="userSpaceOnUse" xlink:href="#linearGradient3774-2-9-4-7"/><linearGradient id="linearGradient3774-2-9-4-7"><stop style="stop-color:#000;stop-opacity:.25098041" id="stop3776-2-9-6-6" offset="0"/><stop id="stop3800-4-7" offset=".25" style="stop-color:#000;stop-opacity:.25098041"/><stop style="stop-color:#000;stop-opacity:0" id="stop3778-4-1-1-0" offset="1"/></linearGradient><radialGradient id="radialGradient3831" cx="50" cy="35" r="10" fx="50" fy="35" gradientTransform="matrix(1,0,0,0.5,0,17.5)" gradientUnits="userSpaceOnUse" xlink:href="#linearGradient3774-2-9-15-2"/><linearGradient id="linearGradient3774-2-9-15-2"><stop style="stop-color:#000;stop-opacity:.25098041" id="stop3776-2-9-5-2" offset="0"/><stop id="stop3800-0-5" offset=".25" style="stop-color:#000;stop-opacity:.25098041"/><stop style="stop-color:#000;stop-opacity:0" id="stop3778-4-1-5-0" offset="1"/></linearGradient><radialGradient id="radialGradient3833" cx="50" cy="35" r="10" fx="50" fy="35" gradientTransform="matrix(1,0,0,0.5,0,17.5)" gradientUnits="userSpaceOnUse" xlink:href="#linearGradient3774-2-9-1-2"/><linearGradient id="linearGradient3774-2-9-1-2"><stop style="stop-color:#000;stop-opacity:.25098041" id="stop3776-2-9-1-0" offset="0"/><stop id="stop3800-3-9" offset=".25" style="stop-color:#000;stop-opacity:.25098041"/><stop style="stop-color:#000;stop-opacity:0" id="stop3778-4-1-7-7" offset="1"/></linearGradient><radialGradient id="radialGradient3342" cx="50" cy="35" r="10" fx="50" fy="35" gradientTransform="matrix(1.75,0,0,0.9,-70,13.4999)" gradientUnits="userSpaceOnUse" xlink:href="#linearGradient3774-2-9-15-2"/><radialGradient id="radialGradient3345" cx="50" cy="35" r="10" fx="50" fy="35" gradientTransform="matrix(1.45,0,0,0.7,-22,10.4999)" gradientUnits="userSpaceOnUse" xlink:href="#linearGradient3774-2-9-4-7"/><radialGradient id="radialGradient3348" cx="50" cy="35" r="10" fx="50" fy="35" gradientTransform="matrix(0.95,0,0,0.5,28,7.4999)" gradientUnits="userSpaceOnUse" xlink:href="#linearGradient3774-2-9-1-2"/></defs><metadata id="metadata7"/><g id="layer1" transform="translate(170,-1052.3622)"><g id="pin-m"><path id="path3772-9" d="M 45.0625 28.53125 C 39.746205 29.569144 36 32.061476 36 35 C 36 38.865993 42.491871 42 50.5 42 C 58.508129 42 65 38.865993 65 35 C 65 32.061476 61.253795 29.569144 55.9375 28.53125 C 54.053152 30.932127 52.291806 32.794711 51.3125 34 L 50.5 35 L 49.6875 34 C 48.708107 32.794566 46.946817 30.932127 45.0625 28.53125 z" transform="translate(-170,1052.3622)" style="color:#000;fill:url(#radialGradient3345);fill-opacity:1;fill-rule:nonzero;stroke:none;stroke-width:2;marker:none;visibility:visible;display:inline;overflow:visible;enable-background:accumulate"/><path style="font-size:medium;font-style:normal;font-variant:normal;font-weight:400;font-stretch:normal;text-indent:0;text-align:start;text-decoration:none;line-height:normal;letter-spacing:normal;word-spacing:normal;text-transform:none;direction:ltr;block-progression:tb;writing-mode:lr-tb;text-anchor:start;baseline-shift:baseline;opacity:.5;color:#000;fill:#fff;fill-opacity:1;stroke:none;stroke-width:2;marker:none;visibility:visible;display:inline;overflow:visible;enable-background:accumulate;font-family:Sans;-inkscape-font-specification:Sans" id="path15028" d="m -119.5,1053.3621 c -6.35292,0 -12.5,5.6607 -12.5,12.5 0,3.9197 2.32282,8.2254 4.90625,12.0938 2.58343,3.8683 5.43188,6.7454 6.78125,8.4062 l 0.8125,1 0.8125,-1 c 1.34925,-1.6606 4.19779,-4.5384 6.78125,-8.4062 2.58346,-3.8679 4.90625,-8.1723 4.90625,-12.0938 0,-6.8393 -6.14708,-12.5 -12.5,-12.5 z m 0,2 c 5.12694,0 10.5,4.895 10.5,10.5 0,3.0804 -2.09387,7.2573 -4.59375,11 -2.20017,3.294 -5.90625,7.5 -5.90625,7.5 0,0 -3.70605,-4.2055 -5.90625,-7.5 -2.49991,-3.7433 -4.59375,-7.9219 -4.59375,-11 0,-5.605 5.37306,-10.5 10.5,-10.5 z"/><rect style="opacity:.3;color:#000;fill:none;stroke:none;stroke-width:2;marker:none;visibility:visible;display:inline;overflow:visible;enable-background:accumulate" id="rect4039-7" width="30" height="70" x="-135" y="1052.362"/></g><g id="pin-l"><path id="path3772-8-8-5" d="M 10.6875 36.71875 C 4.4064867 38.085024 8.1549526e-17 41.272078 0 45 C 0 49.970563 7.8350169 54 17.5 54 C 27.164983 54 35 49.970563 35 45 C 35 41.272078 30.593513 38.085024 24.3125 36.71875 C 21.866034 40.097357 19.52935 42.971184 18.3125 44.59375 L 17.5 45.65625 L 16.6875 44.59375 C 15.470658 42.971184 13.133968 40.097357 10.6875 36.71875 z" transform="translate(-170,1052.3622)" style="color:#000;fill:url(#radialGradient3342);fill-opacity:1;fill-rule:nonzero;stroke:none;stroke-width:2;marker:none;visibility:visible;display:inline;overflow:visible;enable-background:accumulate"/><path id="path3120-3" d="m -152.5,1055.3621 c -7.822,0 -15.5,7.0692 -15.5,15.5 0,4.3801 2.91277,9.6657 6.15625,14.5625 3.24348,4.8968 6.89351,9.3475 8.53125,11.5313 l 0.8125,1.0625 0.8125,-1.0625 c 1.63775,-2.1838 5.28777,-6.6345 8.53125,-11.5313 3.24348,-4.8968 6.15625,-10.1824 6.15625,-14.5625 0,-8.4308 -7.67799,-15.5 -15.5,-15.5 z m 0,2 c 6.58315,0 13.5,6.3154 13.5,13.5 0,3.4277 -2.67377,8.6517 -5.84375,13.4375 -2.86703,4.3285 -5.80442,7.9648 -7.65625,10.375 -1.85182,-2.4102 -4.78922,-6.0465 -7.65625,-10.375 -3.16998,-4.7858 -5.84375,-10.0098 -5.84375,-13.4375 0,-7.1846 6.91686,-13.5 13.5,-13.5 z" style="font-size:medium;font-style:normal;font-variant:normal;font-weight:400;font-stretch:normal;text-indent:0;text-align:start;text-decoration:none;line-height:normal;letter-spacing:normal;word-spacing:normal;text-transform:none;direction:ltr;block-progression:tb;writing-mode:lr-tb;text-anchor:start;baseline-shift:baseline;opacity:.5;color:#000;fill:#fff;fill-opacity:1;fill-rule:nonzero;stroke:none;stroke-width:2;marker:none;visibility:visible;display:inline;overflow:visible;enable-background:accumulate;font-family:Sans;-inkscape-font-specification:Sans"/><rect style="opacity:.3;color:#000;fill:#fff;fill-opacity:0;fill-rule:nonzero;stroke:none;stroke-width:2;marker:none;visibility:visible;display:inline;overflow:visible;enable-background:accumulate" id="rect4047-4" width="35" height="90" x="-170" y="1052.362"/></g><g id="pin-s"><path id="path3772-8-3" d="M 71.5 20.46875 C 68.256883 21.26443 66 22.992553 66 25 C 66 27.761424 70.253295 30 75.5 30 C 80.746705 30 85 27.761424 85 25 C 85 22.986462 82.727755 21.261144 79.46875 20.46875 C 77.682377 22.626503 75.5 25 75.5 25 C 75.5 25 73.337321 22.714533 71.5 20.46875 z" transform="translate(-170,1052.3622)" style="color:#000;fill:url(#radialGradient3348);fill-opacity:1;fill-rule:nonzero;stroke:none;stroke-width:2;marker:none;visibility:visible;display:inline;overflow:visible;enable-background:accumulate"/><rect style="opacity:.3;color:#000;fill:#fff;fill-opacity:0;fill-rule:nonzero;stroke:none;stroke-width:2;marker:none;visibility:visible;display:inline;overflow:visible;enable-background:accumulate" id="rect3262-8" width="20" height="50" x="-105" y="1052.362"/><path id="path58989" d="m -94.5,1052.3621 c -4.84162,0 -9.5,4.3 -9.5,9.5 0,2.7647 1.78158,5.6338 3.6875,8.5469 1.69624,2.5926 5.8125,6.9531 5.8125,6.9531 0,0 4.39328,-4.8178 5.8125,-6.9531 1.92699,-2.8992 3.6875,-5.7822 3.6875,-8.5469 0,-5.2 -4.65838,-9.5 -9.5,-9.5 z m 0,2 c 3.60278,0 7.5,3.5462 7.5,7.5 0,1.8124 -1.50044,4.6576 -3.34375,7.4531 -1.54276,2.3398 -3.04248,3.418 -4.15625,4.8594 -1.11377,-1.4414 -2.61349,-2.5196 -4.15625,-4.8594 -1.84331,-2.7955 -3.34375,-5.6407 -3.34375,-7.4531 0,-3.9538 3.89722,-7.5 7.5,-7.5 z" style="font-size:medium;font-style:normal;font-variant:normal;font-weight:400;font-stretch:normal;text-indent:0;text-align:start;text-decoration:none;line-height:normal;letter-spacing:normal;word-spacing:normal;text-transform:none;direction:ltr;block-progression:tb;writing-mode:lr-tb;text-anchor:start;baseline-shift:baseline;opacity:.5;color:#000;fill:#fff;fill-opacity:1;fill-rule:nonzero;stroke:none;stroke-width:2;marker:none;visibility:visible;display:inline;overflow:visible;enable-background:accumulate;font-family:Sans;-inkscape-font-specification:Sans"/></g></g><g id="layer2" transform="translate(170,-89.999995)" style="display:none"><path style="color:#000;fill:#444;fill-opacity:1;fill-rule:nonzero;stroke:none;stroke-width:2;marker:none;visibility:visible;display:inline;overflow:visible;enable-background:accumulate" id="rect3114" d="m 65,50 0,20 -30,0 0,20 30,0 20,0 0,-40 -20,0 z"/><rect style="color:#000;fill:#0ce4ff;fill-opacity:.35078538;fill-rule:nonzero;stroke:none;stroke-width:2;marker:none;visibility:visible;display:inline;overflow:visible;enable-background:accumulate" id="rect4862" width="24" height="24" x="5" y="969.362" transform="translate(0,-962.36217)"/><rect id="rect4864" width="18" height="18" x="41" y="968.362" transform="translate(0,-962.36217)" style="color:#000;fill:#0ce4ff;fill-opacity:.20418851;fill-rule:nonzero;stroke:none;stroke-width:2;marker:none;visibility:visible;display:inline;overflow:visible;enable-background:accumulate"/><rect style="color:#000;fill:#0ce4ff;fill-opacity:.20418851;fill-rule:nonzero;stroke:none;stroke-width:2;marker:none;visibility:visible;display:inline;overflow:visible;enable-background:accumulate" id="rect4866" width="12" height="12" x="69" y="967.362" transform="translate(0,-962.36217)"/><rect style="color:#000;fill:#fff;fill-opacity:.35078538;fill-rule:nonzero;stroke:none;stroke-width:2;marker:none;visibility:visible;display:inline;overflow:visible;enable-background:accumulate" id="rect5639" width="1" height="24" x="17" y="7"/><rect id="rect5641" width="1" height="24" x="18" y="-29" transform="matrix(0,1,-1,0,0,0)" style="color:#000;fill:#fff;fill-opacity:.35078538;fill-rule:nonzero;stroke:none;stroke-width:2;marker:none;visibility:visible;display:inline;overflow:visible;enable-background:accumulate"/><rect id="rect5643" width="1" height="18" x="50" y="6" style="color:#000;fill:#fff;fill-opacity:.35078538;fill-rule:nonzero;stroke:none;stroke-width:2;marker:none;visibility:visible;display:inline;overflow:visible;enable-background:accumulate"/><rect style="color:#000;fill:#fff;fill-opacity:.35078538;fill-rule:nonzero;stroke:none;stroke-width:2;marker:none;visibility:visible;display:inline;overflow:visible;enable-background:accumulate" id="rect5645" width="1" height="18" x="14" y="-59" transform="matrix(0,1,-1,0,0,0)"/><rect style="color:#000;fill:#fff;fill-opacity:.35078538;fill-rule:nonzero;stroke:none;stroke-width:2;marker:none;visibility:visible;display:inline;overflow:visible;enable-background:accumulate" id="rect5647" width="1" height="12" x="75" y="5"/><rect id="rect5649" width="1" height="12" x="10" y="-81" transform="matrix(0,1,-1,0,0,0)" style="color:#000;fill:#fff;fill-opacity:.35078538;fill-rule:nonzero;stroke:none;stroke-width:2;marker:none;visibility:visible;display:inline;overflow:visible;enable-background:accumulate"/></g></svg>