<svg xmlns="http://www.w3.org/2000/svg" xmlns:svg="http://www.w3.org/2000/svg" xmlns:xlink="http://www.w3.org/1999/xlink" id="svg2" width="85" height="90" version="1.1"><defs id="defs4"><linearGradient id="linearGradient3774-2-9"><stop style="stop-color:#000;stop-opacity:.25098041" id="stop3776-2-9" offset="0"/><stop id="stop3800" offset=".25" style="stop-color:#000;stop-opacity:.25098041"/><stop style="stop-color:#000;stop-opacity:0" id="stop3778-4-1" offset="1"/></linearGradient><radialGradient id="radialGradient3024" cx="50" cy="35" r="10" fx="50" fy="35" gradientTransform="matrix(1,0,0,0.5,0,17.5)" gradientUnits="userSpaceOnUse" xlink:href="#linearGradient3774-2-9"/><radialGradient id="radialGradient3802" cx="50" cy="35" r="10" fx="50" fy="35" gradientTransform="matrix(1,0,0,0.5,0,17.5)" gradientUnits="userSpaceOnUse" xlink:href="#linearGradient3774-2-9"/><radialGradient id="radialGradient3030" cx="50" cy="35" r="10" fx="50" fy="35" gradientTransform="matrix(1,0,0,0.5,0,17.5)" gradientUnits="userSpaceOnUse" xlink:href="#linearGradient3774-2-9"/><radialGradient id="radialGradient3040" cx="50" cy="35" r="10" fx="50" fy="35" gradientTransform="matrix(1,0,0,0.5,0,17.5)" gradientUnits="userSpaceOnUse" xlink:href="#linearGradient3774-2-9"/><radialGradient id="radialGradient3068" cx="50" cy="35" r="10" fx="50" fy="35" gradientTransform="matrix(1,0,0,0.5,0,17.5)" gradientUnits="userSpaceOnUse" xlink:href="#linearGradient3774-2-9"/><radialGradient id="radialGradient3070" cx="50" cy="35" r="10" fx="50" fy="35" gradientTransform="matrix(1,0,0,0.5,0,17.5)" gradientUnits="userSpaceOnUse" xlink:href="#linearGradient3774-2-9"/><radialGradient id="radialGradient3072" cx="50" cy="35" r="10" fx="50" fy="35" gradientTransform="matrix(1,0,0,0.5,0,17.5)" gradientUnits="userSpaceOnUse" xlink:href="#linearGradient3774-2-9"/><linearGradient id="linearGradient3774-2-9-1"><stop style="stop-color:#000;stop-opacity:.25098041" id="stop3776-2-9-1" offset="0"/><stop id="stop3800-3" offset=".25" style="stop-color:#000;stop-opacity:.25098041"/><stop style="stop-color:#000;stop-opacity:0" id="stop3778-4-1-7" offset="1"/></linearGradient><linearGradient id="linearGradient3774-2-9-15"><stop style="stop-color:#000;stop-opacity:.25098041" id="stop3776-2-9-5" offset="0"/><stop id="stop3800-0" offset=".25" style="stop-color:#000;stop-opacity:.25098041"/><stop style="stop-color:#000;stop-opacity:0" id="stop3778-4-1-5" offset="1"/></linearGradient><radialGradient id="radialGradient58942" cx="50" cy="35" r="10" fx="50" fy="35" gradientTransform="matrix(1,0,0,0.5,0,17.5)" gradientUnits="userSpaceOnUse" xlink:href="#linearGradient3774-2-9-4"/><linearGradient id="linearGradient3774-2-9-4"><stop style="stop-color:#000;stop-opacity:.25098041" id="stop3776-2-9-6" offset="0"/><stop id="stop3800-4" offset=".25" style="stop-color:#000;stop-opacity:.25098041"/><stop style="stop-color:#000;stop-opacity:0" id="stop3778-4-1-1" offset="1"/></linearGradient><radialGradient id="radialGradient3829" cx="50" cy="35" r="10" fx="50" fy="35" gradientTransform="matrix(1,0,0,0.5,0,17.5)" gradientUnits="userSpaceOnUse" xlink:href="#linearGradient3774-2-9-4"/><radialGradient id="radialGradient3831" cx="50" cy="35" r="10" fx="50" fy="35" gradientTransform="matrix(1,0,0,0.5,0,17.5)" gradientUnits="userSpaceOnUse" xlink:href="#linearGradient3774-2-9-15"/><radialGradient id="radialGradient3833" cx="50" cy="35" r="10" fx="50" fy="35" gradientTransform="matrix(1,0,0,0.5,0,17.5)" gradientUnits="userSpaceOnUse" xlink:href="#linearGradient3774-2-9-1"/></defs><metadata id="metadata7"/><g id="layer1" transform="translate(170,-1052.3622)"><g id="pin-m"><path id="path58803" d="m -119.5,1053.3621 c -6.35292,0 -12.5,5.6607 -12.5,12.5 0,3.9197 2.32282,8.2254 4.90625,12.0938 2.58343,3.8683 5.43188,6.7454 6.78125,8.4062 l 0.8125,1 0.8125,-1 c 1.34925,-1.6606 4.19779,-4.5384 6.78125,-8.4062 2.58346,-3.8679 4.90625,-8.1723 4.90625,-12.0938 0,-6.8393 -6.14708,-12.5 -12.5,-12.5 z" style="font-size:medium;font-style:normal;font-variant:normal;font-weight:400;font-stretch:normal;text-indent:0;text-align:start;text-decoration:none;line-height:normal;letter-spacing:normal;word-spacing:normal;text-transform:none;direction:ltr;block-progression:tb;writing-mode:lr-tb;text-anchor:start;baseline-shift:baseline;color:#000;fill:#7f7f7f;fill-opacity:1;fill-rule:nonzero;stroke:none;stroke-width:2;marker:none;visibility:visible;display:inline;overflow:visible;enable-background:accumulate;font-family:Sans;-inkscape-font-specification:Sans"/><rect style="opacity:.3;color:#000;fill:none;stroke:none;stroke-width:2;marker:none;visibility:visible;display:inline;overflow:visible;enable-background:accumulate" id="rect4039-7" width="30" height="70" x="-135" y="1052.362"/></g><g id="pin-l"><path id="path59122" d="m -152.5,1055.3621 c -7.822,0 -15.5,7.0692 -15.5,15.5 0,4.3801 2.91277,9.6657 6.15625,14.5625 3.24348,4.8968 6.89351,9.3475 8.53125,11.5313 l 0.8125,1.0625 0.8125,-1.0625 c 1.63775,-2.1838 5.28777,-6.6345 8.53125,-11.5313 3.24348,-4.8968 6.15625,-10.1824 6.15625,-14.5625 0,-8.4308 -7.67799,-15.5 -15.5,-15.5 z" style="font-size:medium;font-style:normal;font-variant:normal;font-weight:400;font-stretch:normal;text-indent:0;text-align:start;text-decoration:none;line-height:normal;letter-spacing:normal;word-spacing:normal;text-transform:none;direction:ltr;block-progression:tb;writing-mode:lr-tb;text-anchor:start;baseline-shift:baseline;color:#000;fill:#7f7f7f;fill-opacity:1;fill-rule:nonzero;stroke:none;stroke-width:2;marker:none;visibility:visible;display:inline;overflow:visible;enable-background:accumulate;font-family:Sans;-inkscape-font-specification:Sans"/><rect style="opacity:.3;color:#000;fill:#fff;fill-opacity:0;fill-rule:nonzero;stroke:none;stroke-width:2;marker:none;visibility:visible;display:inline;overflow:visible;enable-background:accumulate" id="rect4047-4" width="35" height="90" x="-170" y="1052.362"/></g><g id="pin-s"><path id="path59422" d="m -94.5,1052.3621 c -4.84162,0 -9.5,4.3 -9.5,9.5 0,2.7647 1.78158,5.6494 3.6875,8.5625 1.69624,2.5926 5.8125,6.9375 5.8125,6.9375 0,0 4.39328,-4.8022 5.8125,-6.9375 1.92699,-2.8992 3.6875,-5.7978 3.6875,-8.5625 0,-5.2 -4.65838,-9.5 -9.5,-9.5 z" style="font-size:medium;font-style:normal;font-variant:normal;font-weight:400;font-stretch:normal;text-indent:0;text-align:start;text-decoration:none;line-height:normal;letter-spacing:normal;word-spacing:normal;text-transform:none;direction:ltr;block-progression:tb;writing-mode:lr-tb;text-anchor:start;baseline-shift:baseline;color:#000;fill:#7f7f7f;fill-opacity:1;fill-rule:nonzero;stroke:none;stroke-width:2;marker:none;visibility:visible;display:inline;overflow:visible;enable-background:accumulate;font-family:Sans;-inkscape-font-specification:Sans"/><rect style="opacity:.3;color:#000;fill:#fff;fill-opacity:0;fill-rule:nonzero;stroke:none;stroke-width:2;marker:none;visibility:visible;display:inline;overflow:visible;enable-background:accumulate" id="rect3262-8" width="20" height="50" x="-105" y="1052.362"/></g></g><g id="layer2" transform="translate(170,-89.999995)" style="display:none"><path style="color:#000;fill:#444;fill-opacity:1;fill-rule:nonzero;stroke:none;stroke-width:2;marker:none;visibility:visible;display:inline;overflow:visible;enable-background:accumulate" id="rect3114" d="m 65,50 0,20 -30,0 0,20 30,0 20,0 0,-40 -20,0 z"/><rect style="color:#000;fill:#0ce4ff;fill-opacity:.35078538;fill-rule:nonzero;stroke:none;stroke-width:2;marker:none;visibility:visible;display:inline;overflow:visible;enable-background:accumulate" id="rect4862" width="24" height="24" x="5" y="969.362" transform="translate(0,-962.36217)"/><rect id="rect4864" width="18" height="18" x="41" y="968.362" transform="translate(0,-962.36217)" style="color:#000;fill:#0ce4ff;fill-opacity:.20418851;fill-rule:nonzero;stroke:none;stroke-width:2;marker:none;visibility:visible;display:inline;overflow:visible;enable-background:accumulate"/><rect style="color:#000;fill:#0ce4ff;fill-opacity:.20418851;fill-rule:nonzero;stroke:none;stroke-width:2;marker:none;visibility:visible;display:inline;overflow:visible;enable-background:accumulate" id="rect4866" width="12" height="12" x="69" y="967.362" transform="translate(0,-962.36217)"/><rect style="color:#000;fill:#fff;fill-opacity:.35078538;fill-rule:nonzero;stroke:none;stroke-width:2;marker:none;visibility:visible;display:inline;overflow:visible;enable-background:accumulate" id="rect5639" width="1" height="24" x="17" y="7"/><rect id="rect5641" width="1" height="24" x="18" y="-29" transform="matrix(0,1,-1,0,0,0)" style="color:#000;fill:#fff;fill-opacity:.35078538;fill-rule:nonzero;stroke:none;stroke-width:2;marker:none;visibility:visible;display:inline;overflow:visible;enable-background:accumulate"/><rect id="rect5643" width="1" height="18" x="50" y="6" style="color:#000;fill:#fff;fill-opacity:.35078538;fill-rule:nonzero;stroke:none;stroke-width:2;marker:none;visibility:visible;display:inline;overflow:visible;enable-background:accumulate"/><rect style="color:#000;fill:#fff;fill-opacity:.35078538;fill-rule:nonzero;stroke:none;stroke-width:2;marker:none;visibility:visible;display:inline;overflow:visible;enable-background:accumulate" id="rect5645" width="1" height="18" x="14" y="-59" transform="matrix(0,1,-1,0,0,0)"/><rect style="color:#000;fill:#fff;fill-opacity:.35078538;fill-rule:nonzero;stroke:none;stroke-width:2;marker:none;visibility:visible;display:inline;overflow:visible;enable-background:accumulate" id="rect5647" width="1" height="12" x="75" y="5"/><rect id="rect5649" width="1" height="12" x="10" y="-81" transform="matrix(0,1,-1,0,0,0)" style="color:#000;fill:#fff;fill-opacity:.35078538;fill-rule:nonzero;stroke:none;stroke-width:2;marker:none;visibility:visible;display:inline;overflow:visible;enable-background:accumulate"/></g></svg>